<?xml version="1.0" standalone="no"?>
<!DOCTYPE svg PUBLIC "-//W3C//DTD SVG 20010904//EN"
 "http://www.w3.org/TR/2001/REC-SVG-20010904/DTD/svg10.dtd">
<svg version="1.0" xmlns="http://www.w3.org/2000/svg"
 width="300.000000pt" height="300.000000pt" viewBox="0 0 300.000000 300.000000"
 preserveAspectRatio="xMidYMid meet">

<g transform="translate(0.000000,300.000000) scale(0.100000,-0.100000)"
fill="#61dafb" stroke="none">
<path d="M1395 2843 c-359 -44 -540 -120 -724 -304 -104 -103 -176 -193 -280
-349 -81 -121 -111 -192 -111 -262 0 -32 -4 -40 -25 -48 -34 -13 -42 -52 -17
-91 l20 -32 -35 -101 c-32 -92 -35 -108 -29 -173 4 -57 14 -90 45 -151 22 -43
46 -83 54 -90 7 -7 22 -30 32 -53 19 -40 19 -41 -1 -52 -56 -31 -104 -114
-104 -181 0 -53 23 -115 55 -153 46 -54 153 -108 199 -100 32 5 36 2 62 -36
44 -67 144 -199 183 -241 44 -47 83 -72 210 -136 218 -109 334 -137 616 -146
142 -5 197 -3 261 9 189 37 352 117 501 245 86 74 211 223 244 290 14 27 27
42 40 42 32 0 111 42 149 80 49 49 70 98 70 163 0 67 -9 94 -48 139 l-30 34
28 100 c37 132 44 195 30 274 -16 93 -27 179 -41 310 -13 134 -28 169 -105
250 -41 44 -54 64 -54 88 0 21 -9 38 -30 56 -22 18 -33 39 -40 73 -24 125 -43
156 -157 263 -61 57 -98 83 -127 91 -22 6 -74 30 -116 54 -125 73 -179 92
-324 119 -132 25 -295 32 -401 19z m301 -438 c60 -8 135 -21 167 -30 113 -30
315 -124 324 -151 2 -5 -29 -15 -69 -23 -104 -18 -320 -93 -437 -150 -91 -45
-205 -117 -256 -162 -20 -18 -23 -17 -85 3 -87 29 -320 31 -453 4 -124 -25
-269 -78 -310 -114 -45 -39 -27 12 52 146 47 81 180 217 284 291 117 83 316
162 455 180 175 24 193 24 328 6z m682 -340 c89 -95 157 -225 205 -390 50
-172 61 -250 60 -425 -1 -183 -20 -320 -63 -453 -26 -81 -43 -113 -104 -194
-187 -252 -444 -410 -722 -443 -103 -13 -304 -8 -444 11 -103 14 -232 59 -379
132 -134 67 -195 114 -269 211 -104 135 -149 209 -186 308 -72 191 -76 495
-10 726 9 30 17 52 19 50 1 -1 10 -41 20 -88 35 -178 138 -333 288 -434 85
-56 130 -70 227 -71 60 0 86 5 131 26 82 39 185 146 231 239 83 172 133 388
112 490 -12 59 -9 64 106 135 l75 46 31 -37 31 -37 59 24 c51 20 76 23 179 23
132 0 263 -23 328 -55 21 -11 41 -18 44 -15 7 7 -65 41 -117 54 -151 39 -323
43 -423 8 l-67 -23 -25 33 -25 33 97 46 c113 54 240 97 368 124 145 31 143 32
223 -54z m343 -929 c49 -39 73 -84 77 -146 5 -73 -21 -134 -80 -185 -39 -33
-123 -73 -133 -63 -2 2 4 33 15 69 28 90 50 222 50 297 0 61 1 63 23 56 12 -4
34 -16 48 -28z m-2316 -33 c24 -181 38 -239 90 -365 6 -16 1 -18 -36 -18 -54
0 -134 43 -177 96 -82 99 -54 255 56 314 54 28 60 25 67 -27z"/>
<path d="M1716 1775 c-58 -75 -80 -142 -84 -252 -5 -122 11 -179 69 -253 75
-95 181 -141 325 -141 193 0 338 94 394 255 26 76 29 194 7 267 -17 58 -73
149 -96 157 -7 2 3 -16 22 -41 33 -44 75 -133 66 -142 -7 -7 -737 8 -749 15
-14 9 18 76 62 133 16 20 25 37 20 37 -5 0 -22 -16 -36 -35z m284 -179 c0 -15
7 -26 19 -29 24 -6 51 10 51 31 0 15 16 17 181 14 l181 -3 -4 -97 c-3 -83 -8
-107 -33 -157 -41 -84 -105 -145 -190 -180 -63 -26 -81 -29 -180 -30 -93 0
-119 4 -170 24 -82 33 -164 116 -193 194 -22 58 -29 159 -16 226 l7 31 173 0
174 0 0 -24z"/>
<path d="M1580 1186 c0 -4 18 -31 40 -58 31 -39 40 -59 40 -89 0 -32 -5 -41
-29 -53 -38 -20 -87 -6 -142 40 -23 19 -44 32 -47 29 -6 -6 -10 -3 50 -48 56
-42 99 -53 137 -37 29 11 51 46 51 78 0 9 -9 31 -19 47 -25 40 -80 102 -81 91z"/>
<path d="M1434 672 c-70 -21 -138 -59 -173 -96 -35 -37 -16 -32 32 9 45 38
122 71 207 87 89 17 280 3 385 -27 140 -40 134 -39 110 -24 -11 7 -56 24 -100
37 -111 34 -368 41 -461 14z"/>
</g>
</svg>
