<?xml version="1.0" standalone="no"?>
<!DOCTYPE svg PUBLIC "-//W3C//DTD SVG 20010904//EN"
 "http://www.w3.org/TR/2001/REC-SVG-20010904/DTD/svg10.dtd">
<svg version="1.0" xmlns="http://www.w3.org/2000/svg"
 width="860.000000pt" height="921.000000pt" viewBox="0 0 860.000000 921.000000"
 preserveAspectRatio="xMidYMid meet">

<g transform="translate(0.000000,921.000000) scale(0.100000,-0.100000)"
fill="#61dafb" stroke="none">
<path d="M3221 8688 c-17 -46 -32 -301 -41 -702 -12 -513 -20 -618 -74 -916
-8 -47 -25 -174 -36 -283 -11 -110 -27 -215 -35 -234 l-15 -36 -83 6 c-85 6
-375 91 -1034 303 -466 149 -541 166 -564 123 -16 -32 9 -103 318 -904 217
-563 313 -836 313 -894 0 -17 -10 -42 -24 -59 -32 -37 -192 -119 -526 -270
-542 -245 -610 -281 -610 -327 0 -29 34 -54 137 -101 144 -65 288 -142 456
-243 277 -167 389 -248 400 -292 7 -26 -34 -70 -410 -449 -336 -339 -326 -322
-243 -402 58 -56 169 -112 490 -247 118 -50 226 -100 240 -110 22 -17 25 -25
24 -82 -2 -68 -9 -91 -153 -508 -45 -129 -81 -251 -81 -271 0 -69 6 -70 281
-70 266 0 407 -12 454 -39 20 -11 34 -31 44 -60 12 -38 11 -62 -13 -224 -39
-272 -38 -277 50 -277 77 0 265 62 286 94 11 16 0 60 -34 135 -36 78 -86 216
-174 475 -86 253 -105 282 -224 331 -35 15 -83 40 -106 56 -64 44 -144 138
-178 209 -30 62 -31 71 -31 190 1 204 44 309 186 450 l86 85 -5 270 c-8 461
27 956 98 1385 16 96 36 225 45 285 23 153 60 327 96 442 l30 98 -37 73 c-47
90 -49 146 -11 225 38 76 171 206 260 253 129 67 220 125 327 209 175 137 278
198 480 283 227 95 568 137 795 98 230 -40 471 -140 640 -267 155 -115 382
-425 485 -660 66 -148 211 -711 230 -884 14 -137 29 -843 30 -1407 l0 -427 93
-83 c144 -130 177 -167 206 -227 24 -52 26 -65 26 -201 0 -143 0 -146 -32
-210 -45 -91 -87 -129 -267 -239 -36 -23 -61 -47 -72 -69 -9 -20 -36 -115 -60
-211 -55 -226 -126 -425 -203 -574 -52 -99 -60 -121 -50 -138 13 -24 86 -59
140 -66 56 -8 61 10 68 229 6 176 8 190 29 210 19 19 32 22 89 20 38 -1 117
-11 177 -22 135 -25 327 -28 346 -5 15 18 4 72 -66 312 -71 244 -92 410 -60
472 19 36 64 54 216 87 315 67 598 219 540 289 -6 7 -79 51 -163 97 -354 195
-510 328 -548 469 -11 42 -10 54 10 115 32 98 116 219 250 358 141 147 289
277 436 381 198 141 281 218 305 280 14 37 -9 52 -87 60 -271 25 -422 64 -714
184 -135 55 -211 100 -242 142 -24 34 -18 45 79 157 109 124 218 296 290 453
63 139 141 292 217 424 75 129 305 427 474 613 83 91 94 107 91 135 -3 32 -4
32 -63 35 -76 4 -206 -20 -348 -64 -145 -45 -327 -82 -672 -138 -154 -26 -318
-56 -365 -68 -47 -11 -114 -22 -150 -22 l-65 -1 -7 45 c-12 79 -8 271 7 404 8
72 44 265 80 430 83 390 102 489 114 615 13 125 14 441 1 570 -9 97 -23 127
-53 115 -9 -3 -61 -56 -115 -118 -54 -61 -275 -284 -491 -496 l-393 -385 -131
-194 c-133 -196 -193 -271 -217 -271 -34 0 -135 153 -266 402 -77 145 -190
314 -304 456 -94 117 -310 430 -435 632 -78 126 -138 200 -162 200 -8 0 -17
-10 -22 -22z"/>
<path d="M4020 6680 c-142 -8 -264 -35 -389 -86 -80 -33 -159 -72 -190 -93
-23 -15 -1 -34 122 -104 122 -68 224 -158 362 -316 98 -113 113 -137 98 -152
-8 -8 -21 -8 -50 1 -29 10 -81 56 -213 190 -182 183 -245 230 -314 230 -17 0
-59 13 -94 30 l-64 30 -41 -29 c-23 -16 -51 -38 -62 -50 -24 -28 -21 -31 105
-72 243 -80 325 -143 516 -395 118 -156 203 -245 284 -296 132 -84 274 -65
645 84 243 99 417 159 529 185 97 22 107 35 80 94 -57 127 -196 320 -305 425
-150 142 -404 275 -589 307 -106 19 -268 25 -430 17z"/>
<path d="M3020 6176 c-140 -31 -264 -99 -348 -190 -99 -108 -113 -223 -30
-257 41 -17 81 -5 189 56 136 78 196 98 300 99 79 1 90 -2 160 -36 97 -48 164
-109 309 -283 157 -188 276 -294 423 -380 l48 -27 157 5 c154 4 160 5 322 55
91 28 210 66 265 85 567 199 563 197 614 247 40 40 47 70 26 110 -27 53 -90
74 -199 67 -112 -7 -224 -39 -392 -112 -71 -31 -169 -74 -219 -95 -132 -58
-192 -71 -356 -77 -142 -5 -148 -5 -203 20 -77 36 -155 112 -311 307 -208 261
-335 367 -481 404 -72 19 -195 19 -274 2z"/>
<path d="M3058 5789 c-21 -5 -119 -50 -219 -101 l-182 -93 -24 -52 c-47 -101
-105 -377 -143 -673 -11 -91 -31 -232 -45 -315 -13 -82 -37 -260 -52 -395 -24
-215 -28 -282 -28 -545 l1 -300 47 -340 c86 -615 123 -798 226 -1116 91 -279
229 -584 334 -738 110 -162 345 -366 523 -455 169 -84 558 -133 854 -107 106
9 150 18 292 64 91 30 186 66 211 80 63 37 242 228 332 354 249 349 418 823
465 1299 21 216 32 763 26 1219 -7 470 -17 670 -37 721 -10 28 -11 28 -24 10
-8 -10 -17 -39 -20 -65 -9 -63 -21 -93 -75 -176 -98 -150 -270 -262 -476 -311
-83 -20 -309 -14 -389 10 -69 21 -204 102 -265 159 -28 26 -81 91 -116 145
-74 111 -107 202 -130 356 -22 148 -1 300 67 479 39 107 39 133 -5 151 -19 8
-72 22 -118 31 -46 9 -103 25 -127 36 -112 49 -283 201 -426 379 -208 259
-319 326 -477 289z m387 -474 c93 -25 234 -99 312 -165 83 -70 161 -179 192
-271 48 -142 48 -379 1 -575 -24 -101 -94 -252 -155 -332 -53 -70 -159 -158
-238 -196 -70 -35 -192 -50 -347 -43 -145 6 -214 22 -325 76 -196 96 -331 291
-366 531 -14 101 -6 354 15 450 8 35 39 114 70 176 46 93 66 121 125 177 103
96 249 162 426 191 54 8 229 -3 290 -19z m436 -1567 c0 -7 4 -148 8 -313 8
-289 9 -302 34 -368 33 -84 72 -141 115 -164 31 -17 33 -17 67 1 27 15 44 37
70 90 42 84 51 150 60 391 9 278 16 366 29 362 6 -2 20 -19 31 -38 19 -32 20
-50 19 -304 -2 -293 -11 -359 -60 -458 -36 -71 -109 -145 -149 -153 -72 -13
-172 64 -221 170 -55 121 -88 347 -82 563 5 163 23 233 59 233 10 0 19 -6 20
-12z m-1118 -189 c12 -7 43 -31 68 -55 52 -48 110 -69 229 -85 150 -19 235
-13 419 30 94 23 179 41 190 41 32 0 33 -16 3 -45 -35 -35 -78 -57 -183 -92
-77 -26 -96 -28 -229 -28 -321 1 -550 87 -550 206 0 40 14 48 53 28z m1767
-18 c19 -10 69 -36 112 -60 101 -55 186 -73 368 -74 174 -2 210 9 339 103 44
33 90 60 100 60 30 0 53 -28 41 -50 -17 -32 -103 -99 -165 -131 -93 -46 -158
-60 -305 -66 -213 -9 -345 20 -472 104 -92 60 -135 113 -111 137 10 9 49 0 93
-23z m-528 -1016 c4 -72 8 -89 28 -110 32 -34 63 -32 94 6 28 33 33 47 44 124
l8 50 80 -2 c95 -1 234 -26 310 -54 l53 -20 -6 -45 c-7 -51 18 -128 44 -138
26 -10 121 42 138 75 20 37 49 38 101 3 102 -68 199 -191 259 -331 32 -74 39
-102 43 -176 8 -149 -26 -261 -105 -348 -61 -67 -101 -82 -228 -83 -117 -2
-140 -9 -174 -52 -52 -67 -4 -99 145 -96 210 3 328 79 415 269 86 187 45 439
-112 683 -55 87 -70 138 -46 159 12 9 21 10 36 2 52 -28 151 -189 190 -311 68
-213 69 -466 1 -601 -36 -71 -124 -173 -182 -211 -110 -73 -176 -81 -518 -68
-104 4 -119 3 -157 -17 -55 -30 -98 -84 -128 -164 -30 -77 -62 -124 -111 -161
-112 -84 -183 -22 -204 177 -7 61 -20 129 -30 152 -16 36 -28 47 -77 68 -41
18 -82 50 -140 107 l-81 81 -94 -6 c-57 -4 -109 -3 -133 4 -70 19 -225 101
-254 135 -51 58 -101 231 -101 352 0 131 73 322 152 399 46 44 135 96 149 87
5 -3 9 -12 9 -20 0 -43 62 -124 94 -124 30 0 45 29 56 108 5 38 12 77 16 86
11 29 63 47 168 58 55 5 119 16 141 24 22 7 54 13 71 14 l31 0 5 -85z m-764
-27 c15 -15 16 -55 1 -64 -6 -3 -17 -22 -25 -40 -8 -19 -21 -34 -29 -34 -8 0
-27 -19 -43 -42 -47 -68 -141 -263 -157 -325 -22 -85 -20 -269 4 -333 22 -58
91 -157 152 -219 71 -70 103 -81 254 -81 72 0 157 5 190 10 64 10 105 -4 105
-36 0 -54 -326 -98 -450 -61 -98 29 -259 188 -317 313 -62 136 -54 358 20 560
57 154 176 325 247 353 33 13 34 13 48 -1z"/>
<path d="M3195 5249 c-170 -41 -346 -122 -417 -191 -63 -61 -99 -140 -145
-316 -49 -191 -53 -279 -19 -413 41 -160 79 -230 183 -330 136 -131 260 -179
462 -179 169 0 301 47 407 143 87 79 190 311 224 503 22 125 2 384 -30 384 -5
0 -20 24 -33 54 -31 67 -146 187 -235 244 -101 65 -206 105 -287 108 -38 2
-88 -1 -110 -7z m565 -375 c47 -19 60 -38 60 -91 0 -66 -55 -115 -127 -115
-64 0 -122 83 -101 142 27 72 88 96 168 64z"/>
<path d="M3723 2553 c-7 -2 -13 -21 -13 -40 0 -73 84 -167 129 -144 28 16 40
40 47 103 9 74 -6 88 -89 87 -34 0 -68 -3 -74 -6z"/>
<path d="M4310 2547 c-16 -8 -26 -23 -28 -40 -4 -30 32 -99 67 -131 18 -16 24
-17 50 -6 53 21 62 40 59 116 l-3 69 -60 3 c-34 1 -71 -3 -85 -11z"/>
<path d="M3965 1533 c-61 -7 -76 -14 -85 -37 -17 -45 -2 -66 75 -101 113 -51
134 -89 155 -279 11 -103 20 -126 49 -126 28 0 57 39 110 150 56 118 66 129
168 188 125 73 156 109 127 151 -17 24 -78 37 -239 51 -115 9 -297 11 -360 3z"/>
<path d="M5360 5401 c-58 -20 -111 -40 -117 -44 -7 -5 -13 -23 -13 -40 0 -29
6 -35 56 -61 109 -57 263 -232 308 -350 36 -93 65 -26 48 109 -12 98 -72 329
-100 385 -23 47 -50 47 -182 1z"/>
<path d="M4960 5260 c-14 -4 -63 -24 -110 -45 -47 -20 -150 -56 -230 -80 -217
-65 -207 -60 -250 -127 -46 -71 -96 -205 -117 -313 -20 -107 -13 -315 15 -400
36 -114 80 -186 167 -272 68 -68 98 -90 176 -128 116 -55 200 -69 340 -56 104
10 171 32 282 95 85 47 185 140 219 203 49 89 96 386 83 523 -21 228 -100 372
-269 489 -131 90 -245 132 -306 111z m404 -369 c39 -26 55 -57 55 -106 0 -65
-36 -95 -114 -95 -115 0 -144 134 -43 199 41 26 65 26 102 2z"/>
<path d="M2209 2931 c-64 -68 -107 -223 -96 -350 12 -143 81 -250 202 -312 87
-45 101 -37 98 54 -2 69 -57 463 -74 532 -30 125 -64 144 -130 76z"/>
<path d="M5784 2905 c-20 -30 -37 -284 -32 -477 2 -104 6 -130 20 -145 16 -16
20 -15 70 20 88 60 172 188 184 280 9 61 -16 130 -78 223 -46 69 -106 124
-135 124 -7 0 -20 -11 -29 -25z"/>
</g>
</svg>
